<svg width="318" height="275" viewBox="0 0 318 275" fill="none" xmlns="http://www.w3.org/2000/svg">
<path d="M304.462 70C304.582 68.2108 303.677 66.5085 302.125 65.6089L277.205 51.156L274.983 22.4338C274.845 20.6459 273.703 19.0917 272.039 18.4245C270.375 17.7573 268.476 18.0927 267.141 19.2903L245.695 38.5246L217.691 31.762C215.948 31.3411 214.117 31.9462 212.968 33.323C211.819 34.6999 211.552 36.6096 212.278 38.2491L223.944 64.5894L208.859 89.132C207.92 90.6596 207.929 92.5881 208.884 94.1062C209.838 95.6245 211.572 96.4692 213.356 96.2852L242.012 93.3301L260.692 115.261C261.863 116.636 263.704 117.209 265.43 116.774C267.169 116.336 268.508 114.948 268.885 113.195L274.929 85.0279L301.559 74.0393C303.216 73.355 304.342 71.7892 304.462 70Z" fill="#FCB901"/>
<path d="M304.462 70C304.582 68.2108 303.677 66.5085 302.125 65.6089L277.205 51.156L274.983 22.4338C274.845 20.6459 273.703 19.0917 272.039 18.4245C270.375 17.7573 268.476 18.0927 267.141 19.2903L245.695 38.5246L217.691 31.762C215.948 31.3411 214.117 31.9462 212.968 33.323C211.819 34.6999 211.552 36.6096 212.278 38.2491L223.944 64.5894L208.859 89.132C207.92 90.6596 207.929 92.5881 208.884 94.1062C209.838 95.6245 211.572 96.4692 213.356 96.2852L242.012 93.3301L260.692 115.261C261.863 116.636 263.704 117.209 265.43 116.774C267.169 116.336 268.508 114.948 268.885 113.195L274.929 85.0279L301.559 74.0393C303.216 73.355 304.342 71.7892 304.462 70Z" fill="url(#paint0_linear_36_20558)"/>
<path d="M249.304 62.8228C227.02 68.0274 204.858 74.0492 182.575 79.254C178.374 80.2227 177.841 86.6558 182.174 87.6739C190.261 90.2977 198.11 92.4558 206.196 95.0796C198.394 98.7657 190.905 97.8902 182.126 96.2073C178.382 95.7697 174.057 95.921 171.748 99.4458C168.051 104.852 171.861 113.472 173.542 119.069C177.864 133.295 183.935 146.923 186.508 161.748C189.1 178.91 178.438 175.839 167.863 168.91C156.584 161.753 146.104 152.135 137.258 142.27C121.923 124.859 106.455 105.462 85.3319 95.111C73.5968 89.3603 52.9094 89.6427 48.5929 105.341C43.1361 124.554 50.1264 150.916 60.1971 167.785C64.9472 177.098 104.68 234.291 73.1889 228.347C50.1264 223.973 28.9864 196.907 14.2404 180.075C12.2357 177.871 8.63377 180.588 10.1729 183.03C22.5995 202.217 40.5098 220.075 60.3594 231.956C71.1632 238.182 93.8647 241.273 94.7699 222.914C95.8845 201.514 77.9555 181.318 67.2957 163.87C60.3127 153.055 57.2737 138.468 55.0707 126.095C50.4178 99.7151 71.3053 95.223 89.872 107.465C112.553 122.596 127.126 147.143 147.375 164.983C154.672 171.236 178.692 193.02 190.173 181.59C203.393 168.392 190.197 140.794 185.058 126.692C185.182 127.509 176.109 103.97 179.617 103.942C183.123 103.914 186.99 105.168 190.734 105.605C197.87 106.367 204.058 105.265 209.759 102.063C207.24 108.629 205.424 115.424 204.311 122.446C203.874 126.19 209.033 128.253 211.704 126.01C229.457 109.621 239.571 88.0318 253.913 68.9808C256.346 66.2734 253.153 61.7402 249.304 62.8228ZM219.053 94.9762C219.738 92.8667 218.208 91.5931 216.688 91.4884C216.327 90.2055 215.5 89.1601 214.094 88.7038C209.523 87.2208 204.601 85.6237 200.03 84.1406C213.563 80.7595 226.744 77.2644 240.276 73.8832C232.074 85.9885 224.812 98.7877 215.431 109.733C216.562 105.049 217.808 100.012 219.053 94.9762Z" fill="#D5D8F3"/>
<defs>
<linearGradient id="paint0_linear_36_20558" x1="224.986" y1="7.493" x2="320.225" y2="45.6049" gradientUnits="userSpaceOnUse">
<stop stop-color="#AE67FA"/>
<stop offset="0.973958" stop-color="#F49867"/>
</linearGradient>
</defs>
</svg>
