<svg width="150" height="141" viewBox="0 0 150 141" fill="none" xmlns="http://www.w3.org/2000/svg">
<path d="M142.793 105.231C142.854 106.146 142.392 107.015 141.599 107.475L128.865 114.86L127.73 129.537C127.659 130.45 127.076 131.245 126.225 131.585C125.375 131.926 124.405 131.755 123.722 131.143L112.764 121.315L98.4548 124.77C97.5641 124.985 96.6284 124.676 96.0414 123.973C95.4543 123.269 95.3177 122.293 95.6887 121.455L101.65 107.996L93.9415 95.4553C93.4617 94.6747 93.4666 93.6893 93.9543 92.9135C94.4421 92.1377 95.3277 91.7061 96.2392 91.8001L110.882 93.3101L120.427 82.1039C121.026 81.4012 121.967 81.1083 122.848 81.3307C123.737 81.5548 124.421 82.2638 124.613 83.1597L127.702 97.5524L141.309 103.167C142.156 103.517 142.731 104.317 142.793 105.231V105.231Z" fill="#FCB901"/>
<path d="M142.793 105.231C142.854 106.146 142.392 107.015 141.599 107.475L128.865 114.86L127.73 129.537C127.659 130.45 127.076 131.245 126.225 131.585C125.375 131.926 124.405 131.755 123.722 131.143L112.764 121.315L98.4548 124.77C97.5641 124.985 96.6284 124.676 96.0414 123.973C95.4543 123.269 95.3177 122.293 95.6887 121.455L101.65 107.996L93.9415 95.4553C93.4617 94.6747 93.4666 93.6893 93.9543 92.9135C94.4421 92.1377 95.3277 91.7061 96.2392 91.8001L110.882 93.3101L120.427 82.1039C121.026 81.4012 121.967 81.1083 122.848 81.3307C123.737 81.5548 124.421 82.2638 124.613 83.1597L127.702 97.5524L141.309 103.167C142.156 103.517 142.731 104.317 142.793 105.231V105.231Z" fill="url(#paint0_linear_36_20681)"/>
<path d="M114.608 108.899C103.221 106.239 91.8973 103.162 80.5106 100.503C78.3643 100.008 78.0917 96.7203 80.306 96.2001C84.438 94.8594 88.4487 93.7566 92.5807 92.4159C88.594 90.5324 84.7674 90.9797 80.2812 91.8397C78.3681 92.0633 76.1584 91.986 74.9786 90.1849C73.0894 87.4222 75.036 83.0179 75.895 80.1578C78.1034 72.8885 81.2056 65.9249 82.5205 58.3499C83.845 49.5803 78.3971 51.1494 72.9932 54.6899C67.2299 58.347 61.8747 63.2617 57.3547 68.3025C49.5188 77.1991 41.6151 87.1109 30.8215 92.3999C24.8251 95.3384 14.2542 95.1941 12.0486 87.1725C9.26026 77.3549 12.8322 63.8844 17.9781 55.2649C20.4053 50.506 40.7081 21.2818 24.6167 24.3187C12.8322 26.5539 2.03007 40.3843 -5.50485 48.9847C-6.52926 50.1114 -8.36975 48.7229 -7.58329 47.4749C-1.23351 37.6708 7.91829 28.5457 18.061 22.4748C23.5816 19.2936 35.1816 17.714 35.6441 27.0951C36.2137 38.0301 27.0523 48.3496 21.6054 57.2654C18.0372 62.7916 16.4843 70.2453 15.3586 76.5676C12.9811 90.0473 23.6542 92.3427 33.1414 86.0873C44.7311 78.3558 52.1777 65.8124 62.5243 56.6968C66.253 53.5012 78.5265 42.3705 84.3932 48.211C91.1484 54.9547 84.4053 69.0566 81.7796 76.2627C81.8427 75.8451 77.2071 87.8733 78.9991 87.8875C80.7909 87.9019 82.7668 87.2607 84.68 87.0374C88.3265 86.6482 91.488 87.2113 94.4013 88.8473C93.1141 85.4922 92.1862 82.0205 91.6177 78.4322C91.394 76.5191 94.0306 75.4651 95.3952 76.6108C104.467 84.9857 109.635 96.0172 116.963 105.752C118.206 107.135 116.575 109.452 114.608 108.899ZM99.1506 92.4688C99.5003 93.5467 98.7186 94.1974 97.9417 94.251C97.7573 94.9065 97.3349 95.4407 96.6163 95.6739C94.2808 96.4316 91.7657 97.2477 89.4302 98.0055C96.3449 99.7333 103.08 101.519 109.995 103.247C105.804 97.0613 102.093 90.5212 97.2997 84.9284C97.8777 87.3219 98.5142 89.8953 99.1506 92.4688Z" fill="#E3EAF3"/>
<defs>
<linearGradient id="paint0_linear_36_20681" x1="102.182" y1="137.171" x2="150.847" y2="117.697" gradientUnits="userSpaceOnUse">
<stop stop-color="#AE67FA"/>
<stop offset="0.973958" stop-color="#F49867"/>
</linearGradient>
</defs>
</svg>
