<svg width="20" height="11" viewBox="0 0 20 11" fill="none" xmlns="http://www.w3.org/2000/svg">
<path d="M14.5831 0.261337C14.2787 0.60859 14.2799 1.17026 14.5857 1.51587L17.3264 4.6129L0.781249 4.6129C0.349765 4.6129 -2.61829e-07 5.01006 -2.40413e-07 5.5C-2.18997e-07 5.98994 0.349765 6.3871 0.781249 6.3871L17.3265 6.3871L14.5857 9.48413C14.2799 9.82974 14.2787 10.3914 14.5831 10.7387C14.8875 11.086 15.3821 11.0872 15.688 10.7417L19.7701 6.12877C19.7704 6.12851 19.7706 6.1282 19.7708 6.12793C20.0759 5.78232 20.0769 5.21883 19.7709 4.87207C19.7706 4.8718 19.7704 4.87149 19.7702 4.87123L15.688 0.25832C15.3822 -0.0872037 14.8875 -0.0860068 14.5831 0.261337Z" fill="white"/>
</svg>
