<svg width="120" height="34" viewBox="0 0 120 34" fill="none" xmlns="http://www.w3.org/2000/svg">
<path d="M46.0114 23V11.3636H50.6705C51.5265 11.3636 52.2405 11.4905 52.8125 11.7443C53.3845 11.9981 53.8144 12.3504 54.1023 12.8011C54.3902 13.2481 54.5341 13.7633 54.5341 14.3466C54.5341 14.8011 54.4432 15.2008 54.2614 15.5455C54.0795 15.8864 53.8295 16.1667 53.5114 16.3864C53.197 16.6023 52.8371 16.7557 52.4318 16.8466V16.9602C52.875 16.9792 53.2898 17.1042 53.6761 17.3352C54.0663 17.5663 54.3826 17.8902 54.625 18.3068C54.8674 18.7197 54.9886 19.2121 54.9886 19.7841C54.9886 20.4015 54.8352 20.9527 54.5284 21.4375C54.2254 21.9186 53.7765 22.2992 53.1818 22.5795C52.5871 22.8598 51.8542 23 50.983 23H46.0114ZM48.4716 20.9886H50.4773C51.1629 20.9886 51.6629 20.858 51.9773 20.5966C52.2917 20.3314 52.4489 19.9792 52.4489 19.5398C52.4489 19.2178 52.3712 18.9337 52.2159 18.6875C52.0606 18.4413 51.839 18.2481 51.5511 18.108C51.267 17.9678 50.928 17.8977 50.5341 17.8977H48.4716V20.9886ZM48.4716 16.233H50.2955C50.6326 16.233 50.9318 16.1742 51.1932 16.0568C51.4583 15.9356 51.6667 15.7652 51.8182 15.5455C51.9735 15.3258 52.0511 15.0625 52.0511 14.7557C52.0511 14.3352 51.9015 13.9962 51.6023 13.7386C51.3068 13.4811 50.8864 13.3523 50.3409 13.3523H48.4716V16.233ZM56.544 23V14.2727H58.8906V15.7955H58.9815C59.1406 15.2538 59.4077 14.8447 59.7827 14.5682C60.1577 14.2879 60.5895 14.1477 61.0781 14.1477C61.1993 14.1477 61.33 14.1553 61.4702 14.1705C61.6103 14.1856 61.7334 14.2064 61.8395 14.233V16.3807C61.7259 16.3466 61.5687 16.3163 61.3679 16.2898C61.1671 16.2633 60.9834 16.25 60.8168 16.25C60.4607 16.25 60.1425 16.3277 59.8622 16.483C59.5857 16.6345 59.366 16.8466 59.2031 17.1193C59.044 17.392 58.9645 17.7064 58.9645 18.0625V23H56.544ZM65.3295 23.1648C64.7727 23.1648 64.2765 23.0682 63.8409 22.875C63.4053 22.678 63.0606 22.3883 62.8068 22.0057C62.5568 21.6193 62.4318 21.1383 62.4318 20.5625C62.4318 20.0777 62.5208 19.6705 62.6989 19.3409C62.8769 19.0114 63.1193 18.7462 63.4261 18.5455C63.733 18.3447 64.0814 18.1932 64.4716 18.0909C64.8655 17.9886 65.2784 17.9167 65.7102 17.875C66.2178 17.822 66.6269 17.7727 66.9375 17.7273C67.2481 17.678 67.4735 17.6061 67.6136 17.5114C67.7538 17.4167 67.8239 17.2765 67.8239 17.0909V17.0568C67.8239 16.697 67.7102 16.4186 67.483 16.2216C67.2595 16.0246 66.9413 15.9261 66.5284 15.9261C66.0928 15.9261 65.7462 16.0227 65.4886 16.2159C65.2311 16.4053 65.0606 16.6439 64.9773 16.9318L62.7386 16.75C62.8523 16.2197 63.0758 15.7614 63.4091 15.375C63.7424 14.9848 64.1723 14.6856 64.6989 14.4773C65.2292 14.2652 65.8428 14.1591 66.5398 14.1591C67.0246 14.1591 67.4886 14.2159 67.9318 14.3295C68.3788 14.4432 68.7746 14.6193 69.1193 14.858C69.4678 15.0966 69.7424 15.4034 69.9432 15.7784C70.1439 16.1496 70.2443 16.5947 70.2443 17.1136V23H67.9489V21.7898H67.8807C67.7405 22.0625 67.553 22.303 67.3182 22.5114C67.0833 22.7159 66.8011 22.8769 66.4716 22.9943C66.142 23.108 65.7614 23.1648 65.3295 23.1648ZM66.0227 21.4943C66.3788 21.4943 66.6932 21.4242 66.9659 21.2841C67.2386 21.1402 67.4527 20.947 67.608 20.7045C67.7633 20.4621 67.8409 20.1875 67.8409 19.8807V18.9545C67.7652 19.0038 67.661 19.0492 67.5284 19.0909C67.3996 19.1288 67.2538 19.1648 67.0909 19.1989C66.928 19.2292 66.7652 19.2576 66.6023 19.2841C66.4394 19.3068 66.2917 19.3277 66.1591 19.3466C65.875 19.3883 65.6269 19.4545 65.4148 19.5455C65.2027 19.6364 65.0379 19.7595 64.9205 19.9148C64.803 20.0663 64.7443 20.2557 64.7443 20.483C64.7443 20.8125 64.8636 21.0644 65.1023 21.2386C65.3447 21.4091 65.6515 21.4943 66.0227 21.4943ZM74.5426 17.9545V23H72.1222V14.2727H74.429V15.8125H74.5312C74.7244 15.3049 75.0483 14.9034 75.5028 14.608C75.9574 14.3087 76.5085 14.1591 77.1562 14.1591C77.7623 14.1591 78.2907 14.2917 78.7415 14.5568C79.1922 14.822 79.5426 15.2008 79.7926 15.6932C80.0426 16.1818 80.1676 16.7652 80.1676 17.4432V23H77.7472V17.875C77.7509 17.3409 77.6146 16.9242 77.3381 16.625C77.0616 16.322 76.6809 16.1705 76.196 16.1705C75.8703 16.1705 75.5824 16.2405 75.3324 16.3807C75.0862 16.5208 74.893 16.7254 74.7528 16.9943C74.6165 17.2595 74.5464 17.5795 74.5426 17.9545ZM85.2912 23.142C84.6283 23.142 84.0279 22.9716 83.4901 22.6307C82.956 22.286 82.5317 21.7803 82.2173 21.1136C81.9067 20.4432 81.7514 19.6212 81.7514 18.6477C81.7514 17.6477 81.9124 16.8163 82.2344 16.1534C82.5563 15.4867 82.9844 14.9886 83.5185 14.6591C84.0563 14.3258 84.6454 14.1591 85.2855 14.1591C85.7741 14.1591 86.1813 14.2424 86.5071 14.4091C86.8366 14.572 87.1018 14.7765 87.3026 15.0227C87.5071 15.2652 87.6624 15.5038 87.7685 15.7386H87.8423V11.3636H90.2571V23H87.8707V21.6023H87.7685C87.6548 21.8447 87.4938 22.0852 87.2855 22.3239C87.081 22.5587 86.8139 22.7538 86.4844 22.9091C86.1586 23.0644 85.7609 23.142 85.2912 23.142ZM86.0582 21.2159C86.4484 21.2159 86.7779 21.1098 87.0469 20.8977C87.3196 20.6818 87.5279 20.3807 87.6719 19.9943C87.8196 19.608 87.8935 19.1553 87.8935 18.6364C87.8935 18.1174 87.8215 17.6667 87.6776 17.2841C87.5336 16.9015 87.3253 16.6061 87.0526 16.3977C86.7798 16.1894 86.4484 16.0852 86.0582 16.0852C85.6605 16.0852 85.3253 16.1932 85.0526 16.4091C84.7798 16.625 84.5734 16.9242 84.4332 17.3068C84.2931 17.6894 84.223 18.1326 84.223 18.6364C84.223 19.1439 84.2931 19.5928 84.4332 19.983C84.5772 20.3693 84.7836 20.6723 85.0526 20.892C85.3253 21.108 85.6605 21.2159 86.0582 21.2159ZM99.5085 16.7614L97.2926 16.8977C97.2547 16.7083 97.1733 16.5379 97.0483 16.3864C96.9233 16.2311 96.7585 16.108 96.554 16.017C96.3532 15.9223 96.1127 15.875 95.8324 15.875C95.4574 15.875 95.1411 15.9545 94.8835 16.1136C94.6259 16.2689 94.4972 16.4773 94.4972 16.7386C94.4972 16.947 94.5805 17.1231 94.7472 17.267C94.9138 17.411 95.1998 17.5265 95.6051 17.6136L97.1847 17.9318C98.0331 18.1061 98.6657 18.3864 99.0824 18.7727C99.4991 19.1591 99.7074 19.6667 99.7074 20.2955C99.7074 20.8674 99.5388 21.3693 99.2017 21.8011C98.8684 22.233 98.41 22.5701 97.8267 22.8125C97.2472 23.0511 96.5786 23.1705 95.821 23.1705C94.6657 23.1705 93.7453 22.9299 93.0597 22.4489C92.3778 21.964 91.9782 21.3049 91.8608 20.4716L94.2415 20.3466C94.3134 20.6989 94.4877 20.9678 94.7642 21.1534C95.0407 21.3352 95.3949 21.4261 95.8267 21.4261C96.2509 21.4261 96.5919 21.3447 96.8494 21.1818C97.1108 21.0152 97.2434 20.8011 97.2472 20.5398C97.2434 20.3201 97.1506 20.1402 96.9688 20C96.7869 19.8561 96.5066 19.7462 96.1278 19.6705L94.6165 19.3693C93.7642 19.1989 93.1297 18.9034 92.7131 18.483C92.3002 18.0625 92.0938 17.5265 92.0938 16.875C92.0938 16.3144 92.2453 15.8314 92.5483 15.4261C92.8551 15.0208 93.285 14.7083 93.8381 14.4886C94.3949 14.2689 95.0464 14.1591 95.7926 14.1591C96.8949 14.1591 97.7623 14.392 98.3949 14.858C99.0313 15.3239 99.4025 15.9583 99.5085 16.7614ZM102.646 23.1477C102.271 23.1477 101.949 23.0152 101.68 22.75C101.415 22.4811 101.283 22.1591 101.283 21.7841C101.283 21.4129 101.415 21.0947 101.68 20.8295C101.949 20.5644 102.271 20.4318 102.646 20.4318C103.01 20.4318 103.328 20.5644 103.601 20.8295C103.874 21.0947 104.01 21.4129 104.01 21.7841C104.01 22.0341 103.946 22.2633 103.817 22.4716C103.692 22.6761 103.527 22.8409 103.322 22.9659C103.118 23.0871 102.893 23.1477 102.646 23.1477ZM105.997 23V14.2727H108.418V23H105.997ZM107.213 13.1477C106.853 13.1477 106.545 13.0284 106.287 12.7898C106.033 12.5473 105.906 12.2576 105.906 11.9205C105.906 11.5871 106.033 11.3011 106.287 11.0625C106.545 10.8201 106.853 10.6989 107.213 10.6989C107.573 10.6989 107.88 10.8201 108.134 11.0625C108.391 11.3011 108.52 11.5871 108.52 11.9205C108.52 12.2576 108.391 12.5473 108.134 12.7898C107.88 13.0284 107.573 13.1477 107.213 13.1477ZM114.3 23.1705C113.417 23.1705 112.654 22.983 112.01 22.608C111.37 22.2292 110.875 21.7027 110.527 21.0284C110.179 20.3504 110.004 19.5644 110.004 18.6705C110.004 17.7689 110.179 16.9811 110.527 16.3068C110.875 15.6288 111.37 15.1023 112.01 14.7273C112.654 14.3485 113.417 14.1591 114.3 14.1591C115.182 14.1591 115.944 14.3485 116.584 14.7273C117.228 15.1023 117.724 15.6288 118.072 16.3068C118.421 16.9811 118.595 17.7689 118.595 18.6705C118.595 19.5644 118.421 20.3504 118.072 21.0284C117.724 21.7027 117.228 22.2292 116.584 22.608C115.944 22.983 115.182 23.1705 114.3 23.1705ZM114.311 21.2955C114.713 21.2955 115.048 21.1818 115.317 20.9545C115.586 20.7235 115.788 20.4091 115.925 20.0114C116.065 19.6136 116.135 19.161 116.135 18.6534C116.135 18.1458 116.065 17.6932 115.925 17.2955C115.788 16.8977 115.586 16.5833 115.317 16.3523C115.048 16.1212 114.713 16.0057 114.311 16.0057C113.906 16.0057 113.565 16.1212 113.288 16.3523C113.016 16.5833 112.809 16.8977 112.669 17.2955C112.533 17.6932 112.464 18.1458 112.464 18.6534C112.464 19.161 112.533 19.6136 112.669 20.0114C112.809 20.4091 113.016 20.7235 113.288 20.9545C113.565 21.1818 113.906 21.2955 114.311 21.2955Z" fill="#3E4581"/>
<path fill-rule="evenodd" clip-rule="evenodd" d="M30 8.5L15 0L0 8.5V25.5L15 34L30 25.5V8.5ZM24.0824 17.1885L19.378 9.41735L10.2958 9.22881L5.91791 16.8115L10.6223 24.5827L19.7046 24.7712L24.0824 17.1885Z" fill="url(#paint0_linear_36_20563)"/>
<path fill-rule="evenodd" clip-rule="evenodd" d="M30 8.5L15 0L0 8.5V25.5L15 34L30 25.5V8.5ZM24.0824 17.1885L19.378 9.41735L10.2958 9.22881L5.91791 16.8115L10.6223 24.5827L19.7046 24.7712L24.0824 17.1885Z" fill="url(#paint1_linear_36_20563)"/>
<defs>
<linearGradient id="paint0_linear_36_20563" x1="0" y1="0" x2="36.3364" y2="9.33473" gradientUnits="userSpaceOnUse">
<stop stop-color="#4EF0F0"/>
<stop offset="1" stop-color="#05C580"/>
</linearGradient>
<linearGradient id="paint1_linear_36_20563" x1="0.537459" y1="2.64444" x2="31.6124" y2="2.62865" gradientUnits="userSpaceOnUse">
<stop stop-color="#AE67FA"/>
<stop offset="0.973958" stop-color="#F49867"/>
</linearGradient>
</defs>
</svg>
