<svg width="154" height="154" viewBox="0 0 154 154" fill="none" xmlns="http://www.w3.org/2000/svg">
<g filter="url(#filter0_dddddd_36_20329)">
<path d="M82.4849 12.8506C83.0264 12.8506 83.5557 12.6903 84.0063 12.39L87.9703 9.7473V22.45C87.9703 23.2074 87.3563 23.8213 86.5989 23.8213H85.2276V26.564H86.5989C88.8711 26.564 90.713 24.7221 90.713 22.45V9.7473C90.713 7.55673 88.2716 6.25013 86.4489 7.46524L82.4849 10.1079H72.8855C70.6134 10.1079 68.7715 11.9498 68.7715 14.2219V15.5933H71.5142V14.2219C71.5142 13.4646 72.1281 12.8506 72.8855 12.8506H82.4849Z" fill="#3E4581"/>
<path d="M82.4849 12.8506C83.0264 12.8506 83.5557 12.6903 84.0063 12.39L87.9703 9.7473V22.45C87.9703 23.2074 87.3563 23.8213 86.5989 23.8213H85.2276V26.564H86.5989C88.8711 26.564 90.713 24.7221 90.713 22.45V9.7473C90.713 7.55673 88.2716 6.25013 86.4489 7.46524L82.4849 10.1079H72.8855C70.6134 10.1079 68.7715 11.9498 68.7715 14.2219V15.5933H71.5142V14.2219C71.5142 13.4646 72.1281 12.8506 72.8855 12.8506H82.4849Z" fill="url(#paint0_linear_36_20329)"/>
<path fill-rule="evenodd" clip-rule="evenodd" d="M68.4295 29.9077C68.9158 29.5186 69.5201 29.3067 70.1428 29.3067H81.1136C81.871 29.3067 82.4849 28.6927 82.4849 27.9353V19.7073C82.4849 18.9499 81.871 18.3359 81.1136 18.3359H67.4002C66.6428 18.3359 66.0288 18.9499 66.0288 19.7073V31.8283L68.4295 29.9077ZM70.1428 32.0494H81.1136C83.3857 32.0494 85.2276 30.2075 85.2276 27.9353V19.7073C85.2276 17.4352 83.3857 15.5933 81.1136 15.5933H67.4002C65.128 15.5933 63.2861 17.4352 63.2861 19.7073V31.8283C63.2861 34.128 65.9464 35.4066 67.7422 33.9699L70.1428 32.0494Z" fill="#3E4581"/>
<path fill-rule="evenodd" clip-rule="evenodd" d="M68.4295 29.9077C68.9158 29.5186 69.5201 29.3067 70.1428 29.3067H81.1136C81.871 29.3067 82.4849 28.6927 82.4849 27.9353V19.7073C82.4849 18.9499 81.871 18.3359 81.1136 18.3359H67.4002C66.6428 18.3359 66.0288 18.9499 66.0288 19.7073V31.8283L68.4295 29.9077ZM70.1428 32.0494H81.1136C83.3857 32.0494 85.2276 30.2075 85.2276 27.9353V19.7073C85.2276 17.4352 83.3857 15.5933 81.1136 15.5933H67.4002C65.128 15.5933 63.2861 17.4352 63.2861 19.7073V31.8283C63.2861 34.128 65.9464 35.4066 67.7422 33.9699L70.1428 32.0494Z" fill="url(#paint1_linear_36_20329)"/>
<path fill-rule="evenodd" clip-rule="evenodd" d="M68.7715 23.8215C68.7715 23.0642 69.3855 22.4502 70.1428 22.4502H78.3709C79.1283 22.4502 79.7422 23.0642 79.7422 23.8215C79.7422 24.5789 79.1283 25.1929 78.3709 25.1929H70.1428C69.3855 25.1929 68.7715 24.5789 68.7715 23.8215Z" fill="#3E4581"/>
<path fill-rule="evenodd" clip-rule="evenodd" d="M68.7715 23.8215C68.7715 23.0642 69.3855 22.4502 70.1428 22.4502H78.3709C79.1283 22.4502 79.7422 23.0642 79.7422 23.8215C79.7422 24.5789 79.1283 25.1929 78.3709 25.1929H70.1428C69.3855 25.1929 68.7715 24.5789 68.7715 23.8215Z" fill="url(#paint2_linear_36_20329)"/>
</g>
<defs>
<filter id="filter0_dddddd_36_20329" x="0.286133" y="0" width="153.427" height="153.576" filterUnits="userSpaceOnUse" color-interpolation-filters="sRGB">
<feFlood flood-opacity="0" result="BackgroundImageFix"/>
<feColorMatrix in="SourceAlpha" type="matrix" values="0 0 0 0 0 0 0 0 0 0 0 0 0 0 0 0 0 0 127 0" result="hardAlpha"/>
<feOffset dy="1.03704"/>
<feGaussianBlur stdDeviation="1.23958"/>
<feColorMatrix type="matrix" values="0 0 0 0 0 0 0 0 0 0 0 0 0 0 0 0 0 0 0.052963 0"/>
<feBlend mode="normal" in2="BackgroundImageFix" result="effect1_dropShadow_36_20329"/>
<feColorMatrix in="SourceAlpha" type="matrix" values="0 0 0 0 0 0 0 0 0 0 0 0 0 0 0 0 0 0 127 0" result="hardAlpha"/>
<feOffset dy="4.56296"/>
<feGaussianBlur stdDeviation="2.56667"/>
<feColorMatrix type="matrix" values="0 0 0 0 0 0 0 0 0 0 0 0 0 0 0 0 0 0 0.0863704 0"/>
<feBlend mode="normal" in2="effect1_dropShadow_36_20329" result="effect2_dropShadow_36_20329"/>
<feColorMatrix in="SourceAlpha" type="matrix" values="0 0 0 0 0 0 0 0 0 0 0 0 0 0 0 0 0 0 127 0" result="hardAlpha"/>
<feOffset dy="11.2"/>
<feGaussianBlur stdDeviation="5.11875"/>
<feColorMatrix type="matrix" values="0 0 0 0 0 0 0 0 0 0 0 0 0 0 0 0 0 0 0.11 0"/>
<feBlend mode="normal" in2="effect2_dropShadow_36_20329" result="effect3_dropShadow_36_20329"/>
<feColorMatrix in="SourceAlpha" type="matrix" values="0 0 0 0 0 0 0 0 0 0 0 0 0 0 0 0 0 0 127 0" result="hardAlpha"/>
<feOffset dy="21.5704"/>
<feGaussianBlur stdDeviation="10.0333"/>
<feColorMatrix type="matrix" values="0 0 0 0 0 0 0 0 0 0 0 0 0 0 0 0 0 0 0.13363 0"/>
<feBlend mode="normal" in2="effect3_dropShadow_36_20329" result="effect4_dropShadow_36_20329"/>
<feColorMatrix in="SourceAlpha" type="matrix" values="0 0 0 0 0 0 0 0 0 0 0 0 0 0 0 0 0 0 127 0" result="hardAlpha"/>
<feOffset dy="36.2963"/>
<feGaussianBlur stdDeviation="18.4479"/>
<feColorMatrix type="matrix" values="0 0 0 0 0 0 0 0 0 0 0 0 0 0 0 0 0 0 0.167037 0"/>
<feBlend mode="normal" in2="effect4_dropShadow_36_20329" result="effect5_dropShadow_36_20329"/>
<feColorMatrix in="SourceAlpha" type="matrix" values="0 0 0 0 0 0 0 0 0 0 0 0 0 0 0 0 0 0 127 0" result="hardAlpha"/>
<feOffset dy="56"/>
<feGaussianBlur stdDeviation="31.5"/>
<feColorMatrix type="matrix" values="0 0 0 0 0 0 0 0 0 0 0 0 0 0 0 0 0 0 0.22 0"/>
<feBlend mode="normal" in2="effect5_dropShadow_36_20329" result="effect6_dropShadow_36_20329"/>
<feBlend mode="normal" in="SourceGraphic" in2="effect6_dropShadow_36_20329" result="shape"/>
</filter>
<linearGradient id="paint0_linear_36_20329" x1="69.1646" y1="8.52165" x2="91.8923" y2="8.50696" gradientUnits="userSpaceOnUse">
<stop stop-color="#AE67FA"/>
<stop offset="0.973958" stop-color="#F49867"/>
</linearGradient>
<linearGradient id="paint1_linear_36_20329" x1="63.6792" y1="17.0697" x2="86.4069" y2="17.0546" gradientUnits="userSpaceOnUse">
<stop stop-color="#AE67FA"/>
<stop offset="0.973958" stop-color="#F49867"/>
</linearGradient>
<linearGradient id="paint2_linear_36_20329" x1="68.968" y1="22.6635" x2="80.3318" y2="22.6373" gradientUnits="userSpaceOnUse">
<stop stop-color="#AE67FA"/>
<stop offset="0.973958" stop-color="#F49867"/>
</linearGradient>
</defs>
</svg>
