<svg width="154" height="153" viewBox="0 0 154 153" fill="none" xmlns="http://www.w3.org/2000/svg">
<g filter="url(#filter0_dddddd_36_20345)">
<path fill-rule="evenodd" clip-rule="evenodd" d="M76.79 9.758C70.6972 9.758 65.758 14.6972 65.758 20.79H68.516C70.8008 20.79 72.653 22.6422 72.653 24.927V29.064C72.653 31.3488 70.8008 33.201 68.516 33.201H67.137C64.8522 33.201 63 31.3488 63 29.064V20.79C63 13.174 69.174 7 76.79 7C84.406 7 90.58 13.174 90.58 20.79V29.064C90.58 31.3488 88.7278 33.201 86.443 33.201H85.064C82.7792 33.201 80.927 31.3488 80.927 29.064V24.927C80.927 22.6422 82.7792 20.79 85.064 20.79H87.822C87.822 14.6972 82.8828 9.758 76.79 9.758ZM87.822 23.548H85.064C84.3024 23.548 83.685 24.1654 83.685 24.927V29.064C83.685 29.8256 84.3024 30.443 85.064 30.443H86.443C87.2046 30.443 87.822 29.8256 87.822 29.064V23.548ZM65.758 23.548V29.064C65.758 29.8256 66.3754 30.443 67.137 30.443H68.516C69.2776 30.443 69.895 29.8256 69.895 29.064V24.927C69.895 24.1654 69.2776 23.548 68.516 23.548H65.758Z" fill="#3E4581"/>
<path fill-rule="evenodd" clip-rule="evenodd" d="M76.79 9.758C70.6972 9.758 65.758 14.6972 65.758 20.79H68.516C70.8008 20.79 72.653 22.6422 72.653 24.927V29.064C72.653 31.3488 70.8008 33.201 68.516 33.201H67.137C64.8522 33.201 63 31.3488 63 29.064V20.79C63 13.174 69.174 7 76.79 7C84.406 7 90.58 13.174 90.58 20.79V29.064C90.58 31.3488 88.7278 33.201 86.443 33.201H85.064C82.7792 33.201 80.927 31.3488 80.927 29.064V24.927C80.927 22.6422 82.7792 20.79 85.064 20.79H87.822C87.822 14.6972 82.8828 9.758 76.79 9.758ZM87.822 23.548H85.064C84.3024 23.548 83.685 24.1654 83.685 24.927V29.064C83.685 29.8256 84.3024 30.443 85.064 30.443H86.443C87.2046 30.443 87.822 29.8256 87.822 29.064V23.548ZM65.758 23.548V29.064C65.758 29.8256 66.3754 30.443 67.137 30.443H68.516C69.2776 30.443 69.895 29.8256 69.895 29.064V24.927C69.895 24.1654 69.2776 23.548 68.516 23.548H65.758Z" fill="url(#paint0_linear_36_20345)"/>
</g>
<defs>
<filter id="filter0_dddddd_36_20345" x="0" y="0" width="153.58" height="152.201" filterUnits="userSpaceOnUse" color-interpolation-filters="sRGB">
<feFlood flood-opacity="0" result="BackgroundImageFix"/>
<feColorMatrix in="SourceAlpha" type="matrix" values="0 0 0 0 0 0 0 0 0 0 0 0 0 0 0 0 0 0 127 0" result="hardAlpha"/>
<feOffset dy="1.03704"/>
<feGaussianBlur stdDeviation="1.23958"/>
<feColorMatrix type="matrix" values="0 0 0 0 0 0 0 0 0 0 0 0 0 0 0 0 0 0 0.052963 0"/>
<feBlend mode="normal" in2="BackgroundImageFix" result="effect1_dropShadow_36_20345"/>
<feColorMatrix in="SourceAlpha" type="matrix" values="0 0 0 0 0 0 0 0 0 0 0 0 0 0 0 0 0 0 127 0" result="hardAlpha"/>
<feOffset dy="4.56296"/>
<feGaussianBlur stdDeviation="2.56667"/>
<feColorMatrix type="matrix" values="0 0 0 0 0 0 0 0 0 0 0 0 0 0 0 0 0 0 0.0863704 0"/>
<feBlend mode="normal" in2="effect1_dropShadow_36_20345" result="effect2_dropShadow_36_20345"/>
<feColorMatrix in="SourceAlpha" type="matrix" values="0 0 0 0 0 0 0 0 0 0 0 0 0 0 0 0 0 0 127 0" result="hardAlpha"/>
<feOffset dy="11.2"/>
<feGaussianBlur stdDeviation="5.11875"/>
<feColorMatrix type="matrix" values="0 0 0 0 0 0 0 0 0 0 0 0 0 0 0 0 0 0 0.11 0"/>
<feBlend mode="normal" in2="effect2_dropShadow_36_20345" result="effect3_dropShadow_36_20345"/>
<feColorMatrix in="SourceAlpha" type="matrix" values="0 0 0 0 0 0 0 0 0 0 0 0 0 0 0 0 0 0 127 0" result="hardAlpha"/>
<feOffset dy="21.5704"/>
<feGaussianBlur stdDeviation="10.0333"/>
<feColorMatrix type="matrix" values="0 0 0 0 0 0 0 0 0 0 0 0 0 0 0 0 0 0 0.13363 0"/>
<feBlend mode="normal" in2="effect3_dropShadow_36_20345" result="effect4_dropShadow_36_20345"/>
<feColorMatrix in="SourceAlpha" type="matrix" values="0 0 0 0 0 0 0 0 0 0 0 0 0 0 0 0 0 0 127 0" result="hardAlpha"/>
<feOffset dy="36.2963"/>
<feGaussianBlur stdDeviation="18.4479"/>
<feColorMatrix type="matrix" values="0 0 0 0 0 0 0 0 0 0 0 0 0 0 0 0 0 0 0.167037 0"/>
<feBlend mode="normal" in2="effect4_dropShadow_36_20345" result="effect5_dropShadow_36_20345"/>
<feColorMatrix in="SourceAlpha" type="matrix" values="0 0 0 0 0 0 0 0 0 0 0 0 0 0 0 0 0 0 127 0" result="hardAlpha"/>
<feOffset dy="56"/>
<feGaussianBlur stdDeviation="31.5"/>
<feColorMatrix type="matrix" values="0 0 0 0 0 0 0 0 0 0 0 0 0 0 0 0 0 0 0.22 0"/>
<feBlend mode="normal" in2="effect5_dropShadow_36_20345" result="effect6_dropShadow_36_20345"/>
<feBlend mode="normal" in="SourceGraphic" in2="effect6_dropShadow_36_20345" result="shape"/>
</filter>
<linearGradient id="paint0_linear_36_20345" x1="63.4941" y1="9.03786" x2="92.0624" y2="9.02053" gradientUnits="userSpaceOnUse">
<stop stop-color="#AE67FA"/>
<stop offset="0.973958" stop-color="#F49867"/>
</linearGradient>
</defs>
</svg>
