<svg width="153" height="154" viewBox="0 0 153 154" fill="none" xmlns="http://www.w3.org/2000/svg">
<g filter="url(#filter0_dddddd_36_20352)">
<path fill-rule="evenodd" clip-rule="evenodd" d="M63 11.137C63 8.8522 64.8522 7 67.137 7H80.927C82.7283 7 84.2607 8.1512 84.8286 9.758H85.064C87.3488 9.758 89.201 11.6102 89.201 13.895V16.4605C89.201 18.4325 87.8091 20.1304 85.8753 20.5171L76.5196 22.3883C75.875 22.5172 75.411 23.0832 75.411 23.7405V23.917C76.2354 24.3938 76.79 25.2852 76.79 26.306V31.822C76.79 33.3452 75.5552 34.58 74.032 34.58C72.5088 34.58 71.274 33.3452 71.274 31.822V26.306C71.274 25.2852 71.8286 24.3938 72.653 23.917V23.7405C72.653 21.7685 74.0449 20.0706 75.9787 19.6839L85.3344 17.8127C85.979 17.6838 86.443 17.1178 86.443 16.4605V13.895C86.443 13.1334 85.8256 12.516 85.064 12.516C85.064 14.8008 83.2118 16.653 80.927 16.653H67.137C64.8522 16.653 63 14.8008 63 12.516V11.137ZM82.306 11.137C82.306 10.3754 81.6886 9.758 80.927 9.758H67.137C66.3754 9.758 65.758 10.3754 65.758 11.137V12.516C65.758 13.2776 66.3754 13.895 67.137 13.895H80.927C81.6886 13.895 82.306 13.2776 82.306 12.516V11.137Z" fill="#3E4581"/>
<path fill-rule="evenodd" clip-rule="evenodd" d="M63 11.137C63 8.8522 64.8522 7 67.137 7H80.927C82.7283 7 84.2607 8.1512 84.8286 9.758H85.064C87.3488 9.758 89.201 11.6102 89.201 13.895V16.4605C89.201 18.4325 87.8091 20.1304 85.8753 20.5171L76.5196 22.3883C75.875 22.5172 75.411 23.0832 75.411 23.7405V23.917C76.2354 24.3938 76.79 25.2852 76.79 26.306V31.822C76.79 33.3452 75.5552 34.58 74.032 34.58C72.5088 34.58 71.274 33.3452 71.274 31.822V26.306C71.274 25.2852 71.8286 24.3938 72.653 23.917V23.7405C72.653 21.7685 74.0449 20.0706 75.9787 19.6839L85.3344 17.8127C85.979 17.6838 86.443 17.1178 86.443 16.4605V13.895C86.443 13.1334 85.8256 12.516 85.064 12.516C85.064 14.8008 83.2118 16.653 80.927 16.653H67.137C64.8522 16.653 63 14.8008 63 12.516V11.137ZM82.306 11.137C82.306 10.3754 81.6886 9.758 80.927 9.758H67.137C66.3754 9.758 65.758 10.3754 65.758 11.137V12.516C65.758 13.2776 66.3754 13.895 67.137 13.895H80.927C81.6886 13.895 82.306 13.2776 82.306 12.516V11.137Z" fill="url(#paint0_linear_36_20352)"/>
</g>
<defs>
<filter id="filter0_dddddd_36_20352" x="0" y="0" width="152.201" height="153.58" filterUnits="userSpaceOnUse" color-interpolation-filters="sRGB">
<feFlood flood-opacity="0" result="BackgroundImageFix"/>
<feColorMatrix in="SourceAlpha" type="matrix" values="0 0 0 0 0 0 0 0 0 0 0 0 0 0 0 0 0 0 127 0" result="hardAlpha"/>
<feOffset dy="1.03704"/>
<feGaussianBlur stdDeviation="1.23958"/>
<feColorMatrix type="matrix" values="0 0 0 0 0 0 0 0 0 0 0 0 0 0 0 0 0 0 0.052963 0"/>
<feBlend mode="normal" in2="BackgroundImageFix" result="effect1_dropShadow_36_20352"/>
<feColorMatrix in="SourceAlpha" type="matrix" values="0 0 0 0 0 0 0 0 0 0 0 0 0 0 0 0 0 0 127 0" result="hardAlpha"/>
<feOffset dy="4.56296"/>
<feGaussianBlur stdDeviation="2.56667"/>
<feColorMatrix type="matrix" values="0 0 0 0 0 0 0 0 0 0 0 0 0 0 0 0 0 0 0.0863704 0"/>
<feBlend mode="normal" in2="effect1_dropShadow_36_20352" result="effect2_dropShadow_36_20352"/>
<feColorMatrix in="SourceAlpha" type="matrix" values="0 0 0 0 0 0 0 0 0 0 0 0 0 0 0 0 0 0 127 0" result="hardAlpha"/>
<feOffset dy="11.2"/>
<feGaussianBlur stdDeviation="5.11875"/>
<feColorMatrix type="matrix" values="0 0 0 0 0 0 0 0 0 0 0 0 0 0 0 0 0 0 0.11 0"/>
<feBlend mode="normal" in2="effect2_dropShadow_36_20352" result="effect3_dropShadow_36_20352"/>
<feColorMatrix in="SourceAlpha" type="matrix" values="0 0 0 0 0 0 0 0 0 0 0 0 0 0 0 0 0 0 127 0" result="hardAlpha"/>
<feOffset dy="21.5704"/>
<feGaussianBlur stdDeviation="10.0333"/>
<feColorMatrix type="matrix" values="0 0 0 0 0 0 0 0 0 0 0 0 0 0 0 0 0 0 0.13363 0"/>
<feBlend mode="normal" in2="effect3_dropShadow_36_20352" result="effect4_dropShadow_36_20352"/>
<feColorMatrix in="SourceAlpha" type="matrix" values="0 0 0 0 0 0 0 0 0 0 0 0 0 0 0 0 0 0 127 0" result="hardAlpha"/>
<feOffset dy="36.2963"/>
<feGaussianBlur stdDeviation="18.4479"/>
<feColorMatrix type="matrix" values="0 0 0 0 0 0 0 0 0 0 0 0 0 0 0 0 0 0 0.167037 0"/>
<feBlend mode="normal" in2="effect4_dropShadow_36_20352" result="effect5_dropShadow_36_20352"/>
<feColorMatrix in="SourceAlpha" type="matrix" values="0 0 0 0 0 0 0 0 0 0 0 0 0 0 0 0 0 0 127 0" result="hardAlpha"/>
<feOffset dy="56"/>
<feGaussianBlur stdDeviation="31.5"/>
<feColorMatrix type="matrix" values="0 0 0 0 0 0 0 0 0 0 0 0 0 0 0 0 0 0 0.22 0"/>
<feBlend mode="normal" in2="effect5_dropShadow_36_20352" result="effect6_dropShadow_36_20352"/>
<feBlend mode="normal" in="SourceGraphic" in2="effect6_dropShadow_36_20352" result="shape"/>
</filter>
<linearGradient id="paint0_linear_36_20352" x1="63.4694" y1="9.14511" x2="90.6093" y2="9.13026" gradientUnits="userSpaceOnUse">
<stop stop-color="#AE67FA"/>
<stop offset="0.973958" stop-color="#F49867"/>
</linearGradient>
</defs>
</svg>
