<svg width="151" height="154" viewBox="0 0 151 154" fill="none" xmlns="http://www.w3.org/2000/svg">
<g filter="url(#filter0_dddddd_36_20364)">
<path fill-rule="evenodd" clip-rule="evenodd" d="M67.137 9.758C66.3754 9.758 65.758 10.3754 65.758 11.137V30.443C65.758 31.2046 66.3754 31.822 67.137 31.822H83.685C84.4466 31.822 85.064 31.2046 85.064 30.443V20.79C85.064 20.0284 85.6814 19.411 86.443 19.411C87.2046 19.411 87.822 20.0284 87.822 20.79V30.443C87.822 32.7278 85.9698 34.58 83.685 34.58H67.137C64.8522 34.58 63 32.7278 63 30.443V11.137C63 8.8522 64.8522 7 67.137 7H75.411C76.1726 7 76.79 7.6174 76.79 8.379C76.79 9.1406 76.1726 9.758 75.411 9.758H67.137Z" fill="#3E4581"/>
<path fill-rule="evenodd" clip-rule="evenodd" d="M67.137 9.758C66.3754 9.758 65.758 10.3754 65.758 11.137V30.443C65.758 31.2046 66.3754 31.822 67.137 31.822H83.685C84.4466 31.822 85.064 31.2046 85.064 30.443V20.79C85.064 20.0284 85.6814 19.411 86.443 19.411C87.2046 19.411 87.822 20.0284 87.822 20.79V30.443C87.822 32.7278 85.9698 34.58 83.685 34.58H67.137C64.8522 34.58 63 32.7278 63 30.443V11.137C63 8.8522 64.8522 7 67.137 7H75.411C76.1726 7 76.79 7.6174 76.79 8.379C76.79 9.1406 76.1726 9.758 75.411 9.758H67.137Z" fill="url(#paint0_linear_36_20364)"/>
<path fill-rule="evenodd" clip-rule="evenodd" d="M69.983 20.3266C69.7721 20.5376 69.6352 20.8113 69.593 21.1067L68.9429 25.6572C68.8129 26.5673 69.593 27.3474 70.5031 27.2173L75.0536 26.5673C75.3489 26.5251 75.6227 26.3882 75.8336 26.1772L86.2347 15.7762C87.8503 14.1606 87.8503 11.5412 86.2347 9.92557C84.6191 8.30997 81.9997 8.30997 80.3841 9.92557L69.983 20.3266ZM81.3592 16.7513L74.2085 23.902L71.9332 24.227L72.2583 21.9518L79.409 14.8011L81.3592 16.7513ZM83.3094 14.8011L81.3592 12.8509L82.3343 11.8758C82.8728 11.3372 83.746 11.3372 84.2845 11.8758C84.823 12.4143 84.823 13.2874 84.2845 13.826L83.3094 14.8011Z" fill="#3E4581"/>
<path fill-rule="evenodd" clip-rule="evenodd" d="M69.983 20.3266C69.7721 20.5376 69.6352 20.8113 69.593 21.1067L68.9429 25.6572C68.8129 26.5673 69.593 27.3474 70.5031 27.2173L75.0536 26.5673C75.3489 26.5251 75.6227 26.3882 75.8336 26.1772L86.2347 15.7762C87.8503 14.1606 87.8503 11.5412 86.2347 9.92557C84.6191 8.30997 81.9997 8.30997 80.3841 9.92557L69.983 20.3266ZM81.3592 16.7513L74.2085 23.902L71.9332 24.227L72.2583 21.9518L79.409 14.8011L81.3592 16.7513ZM83.3094 14.8011L81.3592 12.8509L82.3343 11.8758C82.8728 11.3372 83.746 11.3372 84.2845 11.8758C84.823 12.4143 84.823 13.2874 84.2845 13.826L83.3094 14.8011Z" fill="url(#paint1_linear_36_20364)"/>
</g>
<defs>
<filter id="filter0_dddddd_36_20364" x="0" y="0" width="150.822" height="153.58" filterUnits="userSpaceOnUse" color-interpolation-filters="sRGB">
<feFlood flood-opacity="0" result="BackgroundImageFix"/>
<feColorMatrix in="SourceAlpha" type="matrix" values="0 0 0 0 0 0 0 0 0 0 0 0 0 0 0 0 0 0 127 0" result="hardAlpha"/>
<feOffset dy="1.03704"/>
<feGaussianBlur stdDeviation="1.23958"/>
<feColorMatrix type="matrix" values="0 0 0 0 0 0 0 0 0 0 0 0 0 0 0 0 0 0 0.052963 0"/>
<feBlend mode="normal" in2="BackgroundImageFix" result="effect1_dropShadow_36_20364"/>
<feColorMatrix in="SourceAlpha" type="matrix" values="0 0 0 0 0 0 0 0 0 0 0 0 0 0 0 0 0 0 127 0" result="hardAlpha"/>
<feOffset dy="4.56296"/>
<feGaussianBlur stdDeviation="2.56667"/>
<feColorMatrix type="matrix" values="0 0 0 0 0 0 0 0 0 0 0 0 0 0 0 0 0 0 0.0863704 0"/>
<feBlend mode="normal" in2="effect1_dropShadow_36_20364" result="effect2_dropShadow_36_20364"/>
<feColorMatrix in="SourceAlpha" type="matrix" values="0 0 0 0 0 0 0 0 0 0 0 0 0 0 0 0 0 0 127 0" result="hardAlpha"/>
<feOffset dy="11.2"/>
<feGaussianBlur stdDeviation="5.11875"/>
<feColorMatrix type="matrix" values="0 0 0 0 0 0 0 0 0 0 0 0 0 0 0 0 0 0 0.11 0"/>
<feBlend mode="normal" in2="effect2_dropShadow_36_20364" result="effect3_dropShadow_36_20364"/>
<feColorMatrix in="SourceAlpha" type="matrix" values="0 0 0 0 0 0 0 0 0 0 0 0 0 0 0 0 0 0 127 0" result="hardAlpha"/>
<feOffset dy="21.5704"/>
<feGaussianBlur stdDeviation="10.0333"/>
<feColorMatrix type="matrix" values="0 0 0 0 0 0 0 0 0 0 0 0 0 0 0 0 0 0 0.13363 0"/>
<feBlend mode="normal" in2="effect3_dropShadow_36_20364" result="effect4_dropShadow_36_20364"/>
<feColorMatrix in="SourceAlpha" type="matrix" values="0 0 0 0 0 0 0 0 0 0 0 0 0 0 0 0 0 0 127 0" result="hardAlpha"/>
<feOffset dy="36.2963"/>
<feGaussianBlur stdDeviation="18.4479"/>
<feColorMatrix type="matrix" values="0 0 0 0 0 0 0 0 0 0 0 0 0 0 0 0 0 0 0.167037 0"/>
<feBlend mode="normal" in2="effect4_dropShadow_36_20364" result="effect5_dropShadow_36_20364"/>
<feColorMatrix in="SourceAlpha" type="matrix" values="0 0 0 0 0 0 0 0 0 0 0 0 0 0 0 0 0 0 127 0" result="hardAlpha"/>
<feOffset dy="56"/>
<feGaussianBlur stdDeviation="31.5"/>
<feColorMatrix type="matrix" values="0 0 0 0 0 0 0 0 0 0 0 0 0 0 0 0 0 0 0.22 0"/>
<feBlend mode="normal" in2="effect5_dropShadow_36_20364" result="effect6_dropShadow_36_20364"/>
<feBlend mode="normal" in="SourceGraphic" in2="effect6_dropShadow_36_20364" result="shape"/>
</filter>
<linearGradient id="paint0_linear_36_20364" x1="63.4447" y1="9.14511" x2="89.1561" y2="9.13178" gradientUnits="userSpaceOnUse">
<stop stop-color="#AE67FA"/>
<stop offset="0.973958" stop-color="#F49867"/>
</linearGradient>
<linearGradient id="paint1_linear_36_20364" x1="69.2605" y1="10.1541" x2="88.4417" y2="10.1431" gradientUnits="userSpaceOnUse">
<stop stop-color="#AE67FA"/>
<stop offset="0.973958" stop-color="#F49867"/>
</linearGradient>
</defs>
</svg>
