<svg width="154" height="154" viewBox="0 0 154 154" fill="none" xmlns="http://www.w3.org/2000/svg">
<g filter="url(#filter0_dddddd_36_20358)">
<path fill-rule="evenodd" clip-rule="evenodd" d="M76.79 7C69.174 7 63 13.174 63 20.79C63 28.406 69.174 34.58 76.79 34.58C84.406 34.58 90.58 28.406 90.58 20.79C90.58 13.174 84.406 7 76.79 7ZM66.1056 18.032C65.8787 18.9135 65.758 19.8377 65.758 20.79C65.758 21.7423 65.8787 22.6665 66.1056 23.548H70.0251C69.9395 22.6545 69.895 21.7317 69.895 20.79C69.895 19.8483 69.9395 18.9255 70.0251 18.032H66.1056ZM67.2339 15.274H70.4372C70.7295 13.8626 71.1328 12.5715 71.6295 11.454C71.7126 11.2671 71.7989 11.0835 71.8885 10.9039C69.9404 11.8717 68.3189 13.3983 67.2339 15.274ZM72.797 18.032C72.7034 18.9112 72.653 19.8346 72.653 20.79C72.653 21.7454 72.7034 22.6688 72.797 23.548H80.783C80.8766 22.6688 80.927 21.7454 80.927 20.79C80.927 19.8346 80.8766 18.9112 80.783 18.032H72.797ZM80.318 15.274H73.262C73.5015 14.2641 73.8028 13.3548 74.1497 12.5742C74.602 11.5565 75.1049 10.8183 75.5936 10.3533C76.0752 9.89493 76.4771 9.758 76.79 9.758C77.1029 9.758 77.5048 9.89493 77.9864 10.3533C78.4751 10.8183 78.978 11.5565 79.4303 12.5742C79.7772 13.3548 80.0785 14.2641 80.318 15.274ZM83.5549 18.032C83.6405 18.9255 83.685 19.8483 83.685 20.79C83.685 21.7317 83.6405 22.6545 83.5549 23.548H87.4744C87.7013 22.6665 87.822 21.7423 87.822 20.79C87.822 19.8377 87.7013 18.9135 87.4744 18.032H83.5549ZM86.3461 15.274H83.1428C82.8505 13.8626 82.4472 12.5715 81.9505 11.454C81.8674 11.2671 81.7811 11.0835 81.6915 10.9039C83.6396 11.8717 85.2611 13.3983 86.3461 15.274ZM71.8885 30.6761C69.9404 29.7083 68.3189 28.1817 67.2339 26.306H70.4372C70.7295 27.7174 71.1328 29.0085 71.6295 30.126C71.7126 30.3129 71.7989 30.4965 71.8885 30.6761ZM74.1497 29.0058C73.8028 28.2252 73.5015 27.3159 73.262 26.306H80.318C80.0785 27.3159 79.7772 28.2252 79.4303 29.0058C78.978 30.0235 78.4751 30.7617 77.9864 31.2267C77.5048 31.6851 77.1029 31.822 76.79 31.822C76.4771 31.822 76.0752 31.6851 75.5936 31.2267C75.1049 30.7617 74.602 30.0235 74.1497 29.0058ZM81.9505 30.126C82.4472 29.0085 82.8505 27.7174 83.1428 26.306H86.3461C85.2611 28.1817 83.6396 29.7083 81.6915 30.6761C81.7811 30.4965 81.8674 30.3129 81.9505 30.126Z" fill="#3E4581"/>
<path fill-rule="evenodd" clip-rule="evenodd" d="M76.79 7C69.174 7 63 13.174 63 20.79C63 28.406 69.174 34.58 76.79 34.58C84.406 34.58 90.58 28.406 90.58 20.79C90.58 13.174 84.406 7 76.79 7ZM66.1056 18.032C65.8787 18.9135 65.758 19.8377 65.758 20.79C65.758 21.7423 65.8787 22.6665 66.1056 23.548H70.0251C69.9395 22.6545 69.895 21.7317 69.895 20.79C69.895 19.8483 69.9395 18.9255 70.0251 18.032H66.1056ZM67.2339 15.274H70.4372C70.7295 13.8626 71.1328 12.5715 71.6295 11.454C71.7126 11.2671 71.7989 11.0835 71.8885 10.9039C69.9404 11.8717 68.3189 13.3983 67.2339 15.274ZM72.797 18.032C72.7034 18.9112 72.653 19.8346 72.653 20.79C72.653 21.7454 72.7034 22.6688 72.797 23.548H80.783C80.8766 22.6688 80.927 21.7454 80.927 20.79C80.927 19.8346 80.8766 18.9112 80.783 18.032H72.797ZM80.318 15.274H73.262C73.5015 14.2641 73.8028 13.3548 74.1497 12.5742C74.602 11.5565 75.1049 10.8183 75.5936 10.3533C76.0752 9.89493 76.4771 9.758 76.79 9.758C77.1029 9.758 77.5048 9.89493 77.9864 10.3533C78.4751 10.8183 78.978 11.5565 79.4303 12.5742C79.7772 13.3548 80.0785 14.2641 80.318 15.274ZM83.5549 18.032C83.6405 18.9255 83.685 19.8483 83.685 20.79C83.685 21.7317 83.6405 22.6545 83.5549 23.548H87.4744C87.7013 22.6665 87.822 21.7423 87.822 20.79C87.822 19.8377 87.7013 18.9135 87.4744 18.032H83.5549ZM86.3461 15.274H83.1428C82.8505 13.8626 82.4472 12.5715 81.9505 11.454C81.8674 11.2671 81.7811 11.0835 81.6915 10.9039C83.6396 11.8717 85.2611 13.3983 86.3461 15.274ZM71.8885 30.6761C69.9404 29.7083 68.3189 28.1817 67.2339 26.306H70.4372C70.7295 27.7174 71.1328 29.0085 71.6295 30.126C71.7126 30.3129 71.7989 30.4965 71.8885 30.6761ZM74.1497 29.0058C73.8028 28.2252 73.5015 27.3159 73.262 26.306H80.318C80.0785 27.3159 79.7772 28.2252 79.4303 29.0058C78.978 30.0235 78.4751 30.7617 77.9864 31.2267C77.5048 31.6851 77.1029 31.822 76.79 31.822C76.4771 31.822 76.0752 31.6851 75.5936 31.2267C75.1049 30.7617 74.602 30.0235 74.1497 29.0058ZM81.9505 30.126C82.4472 29.0085 82.8505 27.7174 83.1428 26.306H86.3461C85.2611 28.1817 83.6396 29.7083 81.6915 30.6761C81.7811 30.4965 81.8674 30.3129 81.9505 30.126Z" fill="url(#paint0_linear_36_20358)"/>
</g>
<defs>
<filter id="filter0_dddddd_36_20358" x="0" y="0" width="153.58" height="153.58" filterUnits="userSpaceOnUse" color-interpolation-filters="sRGB">
<feFlood flood-opacity="0" result="BackgroundImageFix"/>
<feColorMatrix in="SourceAlpha" type="matrix" values="0 0 0 0 0 0 0 0 0 0 0 0 0 0 0 0 0 0 127 0" result="hardAlpha"/>
<feOffset dy="1.03704"/>
<feGaussianBlur stdDeviation="1.23958"/>
<feColorMatrix type="matrix" values="0 0 0 0 0 0 0 0 0 0 0 0 0 0 0 0 0 0 0.052963 0"/>
<feBlend mode="normal" in2="BackgroundImageFix" result="effect1_dropShadow_36_20358"/>
<feColorMatrix in="SourceAlpha" type="matrix" values="0 0 0 0 0 0 0 0 0 0 0 0 0 0 0 0 0 0 127 0" result="hardAlpha"/>
<feOffset dy="4.56296"/>
<feGaussianBlur stdDeviation="2.56667"/>
<feColorMatrix type="matrix" values="0 0 0 0 0 0 0 0 0 0 0 0 0 0 0 0 0 0 0.0863704 0"/>
<feBlend mode="normal" in2="effect1_dropShadow_36_20358" result="effect2_dropShadow_36_20358"/>
<feColorMatrix in="SourceAlpha" type="matrix" values="0 0 0 0 0 0 0 0 0 0 0 0 0 0 0 0 0 0 127 0" result="hardAlpha"/>
<feOffset dy="11.2"/>
<feGaussianBlur stdDeviation="5.11875"/>
<feColorMatrix type="matrix" values="0 0 0 0 0 0 0 0 0 0 0 0 0 0 0 0 0 0 0.11 0"/>
<feBlend mode="normal" in2="effect2_dropShadow_36_20358" result="effect3_dropShadow_36_20358"/>
<feColorMatrix in="SourceAlpha" type="matrix" values="0 0 0 0 0 0 0 0 0 0 0 0 0 0 0 0 0 0 127 0" result="hardAlpha"/>
<feOffset dy="21.5704"/>
<feGaussianBlur stdDeviation="10.0333"/>
<feColorMatrix type="matrix" values="0 0 0 0 0 0 0 0 0 0 0 0 0 0 0 0 0 0 0.13363 0"/>
<feBlend mode="normal" in2="effect3_dropShadow_36_20358" result="effect4_dropShadow_36_20358"/>
<feColorMatrix in="SourceAlpha" type="matrix" values="0 0 0 0 0 0 0 0 0 0 0 0 0 0 0 0 0 0 127 0" result="hardAlpha"/>
<feOffset dy="36.2963"/>
<feGaussianBlur stdDeviation="18.4479"/>
<feColorMatrix type="matrix" values="0 0 0 0 0 0 0 0 0 0 0 0 0 0 0 0 0 0 0.167037 0"/>
<feBlend mode="normal" in2="effect4_dropShadow_36_20358" result="effect5_dropShadow_36_20358"/>
<feColorMatrix in="SourceAlpha" type="matrix" values="0 0 0 0 0 0 0 0 0 0 0 0 0 0 0 0 0 0 127 0" result="hardAlpha"/>
<feOffset dy="56"/>
<feGaussianBlur stdDeviation="31.5"/>
<feColorMatrix type="matrix" values="0 0 0 0 0 0 0 0 0 0 0 0 0 0 0 0 0 0 0.22 0"/>
<feBlend mode="normal" in2="effect5_dropShadow_36_20358" result="effect6_dropShadow_36_20358"/>
<feBlend mode="normal" in="SourceGraphic" in2="effect6_dropShadow_36_20358" result="shape"/>
</filter>
<linearGradient id="paint0_linear_36_20358" x1="63.4941" y1="9.14511" x2="92.0624" y2="9.12865" gradientUnits="userSpaceOnUse">
<stop stop-color="#AE67FA"/>
<stop offset="0.973958" stop-color="#F49867"/>
</linearGradient>
</defs>
</svg>
