<svg width="475" height="580" viewBox="0 0 475 580" fill="none" xmlns="http://www.w3.org/2000/svg">
<mask id="mask0_134_10" style="mask-type:alpha" maskUnits="userSpaceOnUse" x="0" y="0" width="475" height="580">
<rect width="475" height="580" rx="25" fill="#E8F3FB"/>
</mask>
<g mask="url(#mask0_134_10)">
<path fill-rule="evenodd" clip-rule="evenodd" d="M357.368 -118.632C357.058 -118.952 356.939 -119.411 357.055 -119.841V-119.841C357.281 -120.681 356.611 -121.494 355.743 -121.423C355.644 -121.415 355.545 -121.407 355.446 -121.399C355.003 -121.362 354.566 -121.524 354.256 -121.844L350.762 -125.451C348.633 -127.648 345.127 -127.704 342.929 -125.575V-125.575C339.53 -122.282 335.988 -118.658 331.406 -117.476C320.174 -114.577 309.966 -110.176 300.691 -103.89C280.584 -90.2641 266.589 -68.9543 255.289 -39.7085C243.626 -9.52297 240.589 28.4807 239.6 63.3721C239.231 76.4134 239.139 88.8914 239.054 100.554C238.903 121.188 238.77 139.269 237.15 153.402C234.916 172.891 225.68 183.607 215.47 187.241C205.122 190.923 189.433 188.879 171.299 173.487L170.894 173.143C150.807 156.093 117.706 127.996 80.9826 111.966C50.0121 98.4471 14.4271 92.769 -18.2666 111.115C-19.2782 111.683 -20.0117 112.647 -20.3133 113.767L-27.5237 140.543C-28.104 142.698 -22.9933 145.077 -21.3565 143.56V143.56C6.16437 118.055 38.4031 120.082 71.192 134.395C104.344 148.866 135.013 174.788 155.462 192.145C177.824 211.125 202.487 217.836 223.674 210.297C244.998 202.71 258.478 182.23 261.464 156.19C263.225 140.83 263.385 120.396 263.556 98.6895L263.556 98.6894L263.556 98.6874L263.556 98.6853L263.556 98.6847C263.645 87.3118 263.737 75.5896 264.063 64.0651C265.048 29.3205 268.098 -4.95849 278.117 -30.8882C288.499 -57.7576 300.081 -73.9135 314.42 -83.631C323.999 -90.1222 335.578 -94.2634 350.366 -96.2444C350.575 -96.2725 350.749 -96.4235 350.804 -96.6275V-96.6275C350.89 -96.9466 351.246 -97.1074 351.541 -96.9596C364.416 -90.517 378.319 -82.8666 391.876 -74.2465C401.255 -68.2831 410.333 -61.9409 418.711 -55.3103L357.368 -118.632ZM-45.2735 225.645C-45.0178 216.556 -44.3695 207.519 -43.2254 198.853L-53.5401 237.157C-54.4878 240.677 -59.1187 240.643 -59.597 237.03V237.03C-59.7836 235.621 -60.7921 234.33 -62.159 233.94L-69.8004 231.762C-80.0039 228.854 -90.0651 236.908 -88.2813 247.367C-85.2206 265.312 -79.4552 281.308 -70.0833 295.582C-53.7896 320.4 -27.9962 337.885 7.54443 352.218C44.227 367.011 90.6187 371.403 133.243 373.234C149.175 373.919 164.423 374.254 178.675 374.567C203.89 375.12 225.986 375.605 243.229 377.838C267.007 380.917 279.939 392.396 284.197 404.94C288.512 417.652 285.734 436.79 266.599 458.677L266.171 459.166C244.974 483.41 210.045 523.361 189.797 567.957C172.721 605.566 165.145 648.954 186.982 689.238C187.658 690.485 188.824 691.399 190.187 691.787L222.783 701.078C225.406 701.826 228.404 695.622 226.579 693.595V693.595C195.901 659.504 198.955 620.14 217.033 580.323C235.312 540.065 267.54 503.047 289.119 478.365C312.715 451.376 321.357 421.353 312.523 395.325C303.63 369.128 278.843 352.288 247.071 348.173C228.331 345.747 203.36 345.185 176.835 344.589L176.834 344.589L176.832 344.589L176.83 344.589L176.824 344.589C162.928 344.276 148.605 343.954 134.528 343.349C92.0823 341.525 50.243 337.184 18.7322 324.476C-5.02706 314.895 -21.8426 304.638 -33.7165 292.943C-39.878 286.874 -43.0102 278.511 -43.7867 269.898C-44.9892 256.559 -45.7114 241.218 -45.2735 225.645ZM512.601 546.159C508.916 556.109 496.176 558.054 488.794 550.433C484.458 545.957 483.329 539.339 485.384 533.456C489.944 520.399 491.745 508.502 491.085 497.02C489.872 475.882 480.173 453.605 458.479 425.874C437.544 399.114 403.481 374.434 367.634 351.632C355.745 344.07 343.502 336.629 331.624 329.411L331.619 329.407L331.617 329.406L331.615 329.405C308.942 315.626 287.597 302.654 272.581 291.183C247.123 271.734 234.076 244.756 239.474 217.622C244.836 190.664 267.332 168.985 301.262 157.409C332.291 146.824 378.71 130.879 414.669 105.154C450.234 79.7104 472.561 47.1471 463.037 2.28468C462.471 -0.383594 468.169 -4.25685 470.067 -2.2977L493.65 22.0461C494.637 23.0644 495.189 24.4386 495.151 25.8559C493.921 71.6617 465.666 105.449 432.073 129.482C392.241 157.978 342.015 175.112 311.535 185.51L310.92 185.72C283.405 195.107 271.431 210.292 268.811 223.459C266.227 236.45 271.687 252.857 290.74 267.413C304.557 277.968 323.45 289.436 345.01 302.523L345.015 302.527C357.2 309.923 370.236 317.835 383.689 326.393C419.687 349.292 457.668 376.29 482.039 407.443C505.652 437.626 519.247 465.665 520.949 495.305C521.928 512.353 518.923 529.089 512.601 546.159ZM293.765 721.31C304.336 722.863 315.368 723.817 326.472 724.292C344.227 725.051 361.754 724.572 377.284 723.504C388.619 722.724 397.641 733.343 394.526 744.27V744.27C393.687 747.212 390.623 748.918 387.68 748.079L293.765 721.31Z" fill="white"/>
</g>
</svg>
