<svg width="475" height="460" viewBox="0 0 475 460" fill="none" xmlns="http://www.w3.org/2000/svg">
<mask id="mask0_36_20174" style="mask-type:alpha" maskUnits="userSpaceOnUse" x="0" y="0" width="475" height="460">
<path d="M0 25C0 11.1929 11.1929 0 25 0H450C463.807 0 475 11.1929 475 25V460H0V25Z" fill="#13131B"/>
</mask>
<g mask="url(#mask0_36_20174)">
<path d="M527.049 316.882C531.185 325.519 524.444 335 514.867 335C509.242 335 504.243 331.575 501.719 326.548C496.118 315.391 489.536 306.752 481.678 299.968C467.212 287.48 446.679 279.776 415.076 276.424C384.579 273.19 347.186 279.773 309.89 288.692C297.518 291.65 285.003 294.915 272.861 298.083L272.859 298.083C249.686 304.129 227.871 309.82 211.003 312.35C182.405 316.64 156.721 308.154 142.521 287.614C128.412 267.206 128.486 239.007 142.29 209.74C154.915 182.975 173.732 142.868 179.638 103.399C185.479 64.3629 178.391 29.4371 143.325 7.43532C141.24 6.12672 142.307 0 144.769 0L175.363 0C176.643 0 177.881 0.504744 178.775 1.41958C207.698 30.9857 211.858 70.5236 206.34 107.395C199.798 151.116 179.362 194.438 166.96 220.728L166.71 221.259C155.515 244.992 157.839 262.293 164.73 272.26C171.529 282.095 185.595 288.859 206.998 285.649C222.518 283.321 241.819 278.275 263.843 272.517C276.292 269.262 289.612 265.78 303.611 262.432C341.064 253.476 382.421 245.809 417.924 249.575C452.322 253.223 479.038 262.019 499.322 279.531C510.989 289.603 519.952 302.062 527.049 316.882Z" fill="white"/>
<path d="M78.1471 0C68.5866 1.26729 58.7739 3.16895 49.0174 5.5041C33.4174 9.23787 18.3216 13.9905 5.10518 18.7602C-4.5416 22.2417 -15 15.2558 -15 5C-15 2.23857 -12.7614 0 -10 0H78.1471Z" fill="white"/>
<path d="M-46.477 518.715C-54.3779 513.303 -53.2806 501.722 -44.9868 496.934C-40.1154 494.121 -34.0734 494.588 -29.3743 497.679C-18.9452 504.541 -8.92562 508.732 1.27148 510.678C20.0434 514.26 41.6779 510.665 70.7224 497.767C98.7511 485.319 127.843 460.921 155.683 434.549C164.918 425.801 174.124 416.716 183.055 407.902L183.057 407.9C200.103 391.078 216.149 375.242 229.492 364.617C252.114 346.603 278.599 341.11 301.168 351.798C323.59 362.417 337.626 386.876 340.304 419.124C342.753 448.615 346.511 492.757 361.131 529.891C375.59 566.618 399.192 593.321 440.56 594.842C443.021 594.933 445.16 600.772 443.027 602.003L416.533 617.3C415.424 617.94 414.1 618.122 412.867 617.777C373.036 606.633 349.665 574.472 336.008 539.782C319.813 498.647 315.85 450.911 313.445 421.942L313.397 421.358C311.225 395.206 300.562 381.386 289.611 376.2C278.805 371.082 263.241 372.257 246.312 385.738C234.034 395.515 219.843 409.535 203.648 425.534C194.494 434.577 184.7 444.252 174.251 454.151C146.293 480.634 114.31 507.952 81.681 522.443C50.0678 536.482 22.5326 542.222 -3.78985 537.199C-18.9302 534.31 -32.9212 528.001 -46.477 518.715Z" fill="white"/>
<path d="M500.724 568.692C508.37 562.814 515.917 556.261 523.199 549.361C534.842 538.327 545.539 526.663 554.6 515.924C561.214 508.086 573.764 508.907 578.892 517.789C580.272 520.18 579.453 523.238 577.061 524.619L500.724 568.692Z" fill="white"/>
<path d="M-15.2954 10.7961C-10.9624 4.26798 -1.47524 5.02706 2.5412 11.7546C4.90028 15.706 4.591 20.6543 2.118 24.5354C-3.37048 33.1491 -6.67873 41.3959 -8.14869 49.761C-10.8547 65.1604 -7.65483 82.8157 3.24448 106.421C13.7626 129.202 34.0697 152.708 55.9765 175.168C63.2434 182.618 70.7858 190.04 78.1033 197.241L78.1046 197.242C92.0698 210.985 105.217 223.923 114.068 234.711C129.076 253.002 133.886 274.603 125.413 293.192C116.994 311.663 97.1535 323.437 70.8048 326.014C46.7084 328.37 10.6423 331.973 -19.5604 344.377C-49.4323 356.645 -70.994 376.272 -71.7436 410.132C-71.7882 412.146 -76.5398 413.966 -77.5724 412.236L-90.4031 390.745C-90.9398 389.846 -91.1044 388.764 -90.8371 387.752C-82.1976 355.035 -56.1675 335.531 -27.9524 323.943C5.50445 310.203 44.5082 306.39 68.1775 304.076L68.655 304.029C90.0225 301.939 101.201 293.051 105.313 284.031C109.37 275.13 108.222 262.411 96.9911 248.723C88.8465 238.797 77.2074 227.355 63.9254 214.298C56.4181 206.918 48.386 199.022 40.1633 190.592C18.1639 168.038 -4.56648 142.201 -16.8109 115.681C-28.6741 89.988 -33.6997 67.5313 -29.9053 45.9379C-27.7228 33.5176 -22.7295 21.9966 -15.2954 10.7961Z" fill="white"/>
<path d="M-49.6316 459.037C-44.7317 465.221 -39.2805 471.317 -33.5483 477.191C-24.3829 486.584 -14.7132 495.195 -5.81975 502.479C0.671691 507.795 0.150425 518.072 -7.05403 522.373C-8.99386 523.531 -11.5052 522.898 -12.6634 520.958L-49.6316 459.037Z" fill="white"/>
</g>
</svg>
